<?xml version="1.0" standalone="no"?>
<!DOCTYPE svg PUBLIC "-//W3C//DTD SVG 20010904//EN"
 "http://www.w3.org/TR/2001/REC-SVG-20010904/DTD/svg10.dtd">
<svg version="1.0" xmlns="http://www.w3.org/2000/svg"
 width="200.000000pt" height="200.000000pt" viewBox="0 0 200.000000 200.000000"
 preserveAspectRatio="xMidYMid meet">

<g transform="translate(0.000000,200.000000) scale(0.100000,-0.100000)"
fill="#000000" stroke="none">
<path d="M373 1818 c-20 -25 -316 -543 -316 -554 0 -5 71 -135 159 -287 l159
-277 325 3 324 2 161 279 162 279 -108 186 c-59 102 -132 229 -162 281 l-55
95 -320 3 c-248 2 -322 -1 -329 -10z m597 -286 c18 -15 32 -61 76 -247 56
-236 60 -261 45 -284 -13 -21 -62 -16 -81 7 -9 11 -27 61 -40 111 l-24 91
-242 0 c-223 0 -243 -1 -248 -17 -2 -10 -10 -45 -16 -78 -16 -85 -30 -115 -57
-126 -27 -10 -57 1 -67 26 -3 9 17 123 45 253 43 206 53 240 75 260 25 22 30
22 268 22 220 0 246 -2 266 -18z"/>
<path d="M505 1428 c-7 -24 -25 -93 -25 -100 0 -5 101 -8 225 -8 124 0 225 3
225 6 0 3 -7 30 -16 60 l-15 54 -195 0 c-147 0 -196 -3 -199 -12z"/>
<path d="M1435 1156 c-13 -13 -27 -36 -31 -50 -8 -32 12 -82 40 -101 58 -41
146 7 146 80 0 80 -100 126 -155 71z"/>
<path d="M1244 876 c-3 -8 -4 -31 -2 -52 l3 -39 103 -3 102 -3 0 -249 0 -250
-115 0 -115 0 0 -50 0 -50 285 0 285 0 0 50 0 50 -105 0 -105 0 -2 303 -3 302
-163 3 c-133 2 -163 0 -168 -12z"/>
</g>
</svg>
